<svg width="372" height="878" viewBox="0 0 372 878" fill="none" xmlns="http://www.w3.org/2000/svg">
<path d="M36.565 212.313C30.117 161.863 29.391 106.829 61.341 63.7643C88.498 27.1593 123.892 6.63604 168.93 1.39104C209.542 -4.07256 247.811 6.66374 280.093 31.7413C314.135 58.1873 333.265 90.1173 338.66 133.369C342.128 161.163 338.634 183.666 337.257 210.823C364.555 193.418 373.427 220.572 371.379 242.863C369.928 258.669 364.884 271.368 357.194 285.089C348.662 300.312 342.146 318.533 321.238 314.795C315.92 348.434 312.653 362.804 289.249 388.584C282.351 396.17 275.262 403.581 267.99 410.81C275.623 422.061 279.96 430.825 273.473 444.373C276.465 446.034 281.241 448.8 283.744 451.468C292.381 460.673 303.062 474.938 306.9 486.872C308.128 490.688 308.24 498.964 308.357 502.811C321.108 519.805 324.008 526.277 322.388 547.193C328.72 559.256 334.031 564.833 329.68 578.821C329.281 580.095 328.87 581.366 328.446 582.633C334.322 592.498 337.763 599.921 334.814 611.675L333.642 616.242C338.618 628.792 340.702 639.575 330.539 650.651C330.778 658.044 326.953 666.162 326.968 672.696C327.36 686.225 329.193 702.33 318.665 712.877C311.829 719.726 299.989 728.655 289.953 729.09C277.917 729.611 281.686 716.211 284.818 710.087C279.073 710.406 278.314 709.711 275.018 705.208C273.75 721.705 271.88 738.183 270.02 754.623C267.793 774.306 266.118 794.04 264.502 813.782C267.859 818.641 270.356 820.601 266.204 825.903C275.431 832.188 284.603 836.822 294.583 841.79C306.389 842.809 318.88 845.19 330.46 847.779C333.573 848.475 351.618 853.535 346.444 859.273C340.302 865.001 327.082 867.785 318.981 869.014C242.916 880.545 163.719 879.673 87.37 871.295C78.614 870.335 46.397 865.769 44.833 856.812C47.666 846.365 98.093 841.347 108.595 840.665L112.747 835.441C110.312 831.217 110.321 817.931 110.035 812.347L108.351 775.984C107.147 749.149 105.239 722.424 105.313 695.564C91.739 691.533 88.578 692.197 88.546 676.787C82.992 670.92 80.097 667.136 80.288 658.41C80.34 656.507 80.419 654.605 80.525 652.704C76.543 650.761 69.516 644.346 67.79 643.762C48.187 637.123 39.874 635.818 30.097 614.962C23.281 610.602 18.7659 607.032 14.7969 599.77C7.68595 586.758 11.392 566.948 17.802 554.429C15.984 537.282 23.074 518.213 33.646 505.056C34.896 503.52 36.169 502.003 37.465 500.506C37.604 493.985 38.02 488.177 40.656 482.117C46.248 469.258 56.515 458.034 68.746 451.31C60.567 426.116 68.456 402.142 91.88 388.966C86.883 383.727 81.916 378.682 77.745 372.752C66.882 357.308 62.161 333.146 58.24 314.578C45.203 321.166 35.019 314.277 27.18 303.646C10.172 280.579 -6.37104 250.52 2.45396 221.113C7.99996 203.63 23.28 202.487 36.565 212.313Z" fill="#060504"/>
<path d="M148.581 837.281C152.013 838.227 172.639 837.43 177.843 837.389C194.051 837.301 210.26 837.323 226.468 837.456C226.358 842.042 225.167 850.892 228.952 854.19C233.546 858.193 285.345 858.076 293.581 856.721C296.198 856.29 299.157 855.477 300.755 853.176C301.505 852.096 301.57 850.983 301.313 849.727C300.692 846.697 296.945 843.516 294.582 841.79C306.388 842.809 318.879 845.19 330.459 847.779C333.572 848.475 351.617 853.535 346.443 859.273C340.301 865.001 327.081 867.785 318.98 869.014C242.915 880.545 163.718 879.673 87.369 871.295C78.613 870.335 46.396 865.769 44.832 856.812C47.665 846.365 98.092 841.347 108.594 840.665C104.647 846.074 93.285 860.342 105.747 863.875C118.94 867.615 137.555 867.043 150.583 862.832C159.635 859.907 151.304 842.451 148.581 837.281Z" fill="#7E7E7E"/>
<path d="M102.706 82.2853C106.196 83.0153 110.071 84.3413 113.394 85.6673C146.546 98.8883 182.612 107.017 218.368 102.212C236.623 99.7593 253.29 96.3533 270.165 88.9193C273.592 87.4093 283.349 82.4433 286.136 81.9703C293.37 86.9733 295.389 90.3383 300.209 97.3083C314.987 118.677 308.711 142.95 307.99 166.843C307.939 168.541 309.457 172.098 310.256 173.719C314.711 181.872 317.997 189.26 320.572 198.238C321.911 202.906 322.997 207.641 323.827 212.426C324.605 216.947 326.652 236.99 327.934 239.037L328.633 238.971L329.91 237.107L330.246 237.554C329.492 241.621 328.421 245.546 327.369 249.543C324.076 262.047 322.461 275.102 319.515 287.66C318.326 297.236 315.676 308.14 313.85 317.761C311.644 329.387 308.518 345.087 303.954 355.887C297.731 370.61 282.595 385.406 271.702 397.129C266.958 402.233 261.045 408.689 256.196 413.457L254.778 411.544L253.736 412.674L253.046 413.392C250.894 415.668 247.965 420.026 245.87 422.512C231.468 439.599 223.948 450.783 200.137 451.08C181.195 451.316 167.509 452.069 152.86 437.733C147.53 432.516 140.887 426.089 136.185 420.383L134.986 420.713L134.362 419.991C132.044 418.217 128.949 414.931 126.8 412.775C118.009 404.591 109.375 396.24 100.902 387.727C88.819 375.6 80.422 367.954 75.387 351.059C67.13 323.353 61.234 295.034 54.57 266.912C52.855 259.674 50.798 251.413 50.084 244.126L52.607 249.658C53.419 246.09 53.36 234.719 54.049 229.633C56.08 214.354 61.224 199.654 69.162 186.442C71.716 182.201 74.609 178.428 77.211 174.239C77.087 153.163 69.339 131.152 76.745 109.662C80.349 99.2043 88.627 88.3093 98.654 83.4483L102.706 82.2853Z" fill="#FCC7A5"/>
<path d="M77.211 174.239C77.087 153.163 69.339 131.152 76.745 109.662C80.349 99.2044 88.627 88.3094 98.654 83.4484C97.065 86.7994 93.983 91.4464 92.941 94.5444C83.373 123.006 96.626 151.464 97.446 179.992C97.672 187.838 86.039 207.163 86.832 210.908C84.143 214.11 79.01 219.384 79.061 223.378C78.573 227.135 72.526 239.443 71.013 244.69C65.242 264.7 64.054 291.073 75.516 309.403C80.677 317.659 97.811 339.543 97.221 347.124C97.777 349.882 99.079 352.76 100.135 355.407C102.707 356.819 104.482 361.368 105.759 364.22C109.833 373.311 115.095 381.165 120.108 389.68C121.835 392.613 125.961 398.947 127.172 401.672L129.587 405.473C130.314 407.345 130.784 408.492 131.692 410.274C132.807 413.159 134.527 417.938 136.185 420.383L134.986 420.713L134.362 419.991C132.044 418.217 128.949 414.931 126.8 412.775C118.009 404.591 109.375 396.24 100.902 387.727C88.819 375.6 80.422 367.954 75.387 351.059C67.13 323.353 61.234 295.034 54.57 266.912C52.855 259.674 50.798 251.413 50.084 244.126L52.607 249.658C53.419 246.09 53.36 234.719 54.049 229.633C56.08 214.354 61.224 199.654 69.162 186.442C71.716 182.201 74.609 178.428 77.211 174.239Z" fill="#FCC7A5"/>
<path d="M50.084 244.126L52.607 249.658C52.807 251.693 56.735 262.635 57.738 265.781C60.342 274.192 62.847 282.634 65.255 291.103C71.089 311.669 74.947 333.929 81.906 354.2C88.836 374.392 113.401 392.642 125.834 409.671C126.652 410.792 127.559 411.523 126.8 412.775C118.009 404.591 109.375 396.24 100.902 387.727C88.819 375.6 80.422 367.954 75.387 351.059C67.13 323.353 61.234 295.034 54.57 266.912C52.855 259.674 50.798 251.413 50.084 244.126Z" fill="#FDDBC0"/>
<path d="M100.137 355.407C101.207 358.521 102.476 360.601 103.166 364.05C101.121 361.947 96.9288 349.784 95.9618 346.624L96.2368 346.141L95.7988 345.788L95.8598 345.291L96.3608 345.278L96.6118 346.787L96.8348 346.04L97.2228 347.124C97.7788 349.882 99.0808 352.76 100.137 355.407Z" fill="#895445"/>
<path d="M130.695 410.632L131.692 410.274C132.807 413.159 134.527 417.938 136.185 420.383L134.986 420.713L134.362 419.991C132.944 416.965 131.847 413.773 130.695 410.632Z" fill="#3D2518"/>
<path d="M127.174 401.672L129.589 405.473C130.316 407.345 130.786 408.492 131.694 410.274L130.697 410.632C129.128 407.955 127.784 404.709 127.174 401.672Z" fill="#895445"/>
<path d="M318.708 280.582L319.276 279.333L319.891 279.362C319.723 282.305 319.163 284.731 319.516 287.66C318.327 297.236 315.677 308.141 313.851 317.762C311.645 329.388 308.519 345.088 303.955 355.888C297.732 370.611 282.596 385.406 271.703 397.129C266.959 402.233 261.046 408.689 256.197 413.457L254.779 411.544L253.737 412.674L253.047 413.392C250.895 415.668 247.966 420.027 245.871 422.513C231.469 439.6 223.949 450.783 200.138 451.08C181.196 451.316 167.51 452.069 152.861 437.733C147.531 432.516 140.888 426.089 136.186 420.383C134.528 417.938 132.808 413.16 131.693 410.275C130.785 408.493 130.315 407.346 129.588 405.474C132.445 407.557 142.396 420.595 145.938 424.31C158.468 437.452 166.417 446.512 185.13 446.897C219.21 447.597 225.434 443.556 244.42 417.775C252.743 406.332 260.514 394.497 267.706 382.31C269.449 379.338 275.165 367.334 277.252 366.1C281.185 358.667 284.078 352.355 286.678 344.375C286.762 342.678 292.294 335.262 293.797 333.625C298.319 328.698 312.626 296.768 315.219 294.702C315.801 293.769 318.526 282.129 318.708 280.582Z" fill="#FCC7A5"/>
<path d="M318.708 280.582L319.276 279.333L319.891 279.362C319.723 282.305 319.163 284.731 319.516 287.66C318.327 297.236 315.677 308.141 313.851 317.762C311.645 329.388 308.519 345.088 303.955 355.888C297.732 370.611 282.596 385.406 271.703 397.129C266.959 402.233 261.046 408.689 256.197 413.457L254.779 411.544C257.296 409.2 263.842 401.295 266.331 398.389C275.373 387.832 284.945 376.986 293.238 365.883C295.58 362.748 300.366 354.642 301.53 350.905C307.221 332.638 309.954 313.122 315.219 294.702C315.801 293.769 318.526 282.129 318.708 280.582Z" fill="#FCC7A5"/>
<path d="M286.678 344.375L287.34 344.361C287.034 349.77 281.762 362.013 277.252 366.1C281.185 358.667 284.078 352.355 286.678 344.375Z" fill="#060504"/>
<path d="M286.137 81.9703C293.371 86.9733 295.39 90.3383 300.21 97.3083C314.988 118.677 308.712 142.95 307.991 166.843C307.94 168.541 309.458 172.098 310.257 173.719C314.712 181.872 317.998 189.26 320.573 198.238C321.912 202.906 322.998 207.641 323.828 212.426C324.606 216.947 326.653 236.99 327.935 239.037L328.634 238.971L329.911 237.107L330.247 237.554C329.493 241.621 328.422 245.546 327.37 249.543C324.077 262.047 322.462 275.102 319.516 287.66C319.163 284.731 319.723 282.305 319.891 279.362L319.276 279.333L318.708 280.582C317.815 270.492 321.673 257.353 319.232 246.701C318.169 242.065 315.556 225.857 311.833 222.998C311.317 219.252 305.818 213.084 303.346 209.607C303.697 208.789 304.039 208.241 303.646 207.284C300.563 199.775 294.681 191.06 293.427 182.987C292.113 173.414 294.677 164.052 296.095 154.712C298.942 135.963 299.038 116.286 292.903 98.1593C290.971 92.4493 288.198 87.5453 286.137 81.9703Z" fill="#FCC7A5"/>
<path d="M86.8319 210.908C92.4549 205.269 100.168 197.627 108.617 197.593C120.693 197.545 156.676 197.411 164.612 205.496C166.133 207.046 167.482 208.757 168.811 210.47C169.024 207.98 169.167 205.552 169.643 203.099C174.207 210.451 175.112 217.019 168.316 223.556C162.573 220.59 122.759 214.06 114.774 213.853C101.333 212.666 90.8499 216.649 79.0609 223.378C79.0099 219.384 84.1429 214.11 86.8319 210.908Z" fill="#060504"/>
<path d="M225.567 210.518C226.801 208.742 228.025 206.847 229.557 205.314C237.261 197.608 273.896 197.176 285.661 197.37C291.9 197.473 299.303 205.519 303.346 209.607C305.818 213.084 311.317 219.252 311.833 222.998C300.568 218.706 290.338 210.359 277.158 213.284C259.546 214.296 242.438 220.04 225.407 222.538C220.661 218.42 219.728 209.245 223.917 204.857L224.932 204.872C225.93 206.482 225.609 208.546 225.567 210.518Z" fill="#060504"/>
<path d="M113.313 231.327C121.197 229.153 125.917 229.181 133.984 229.48C147.89 229.997 149.891 234.644 156.673 245.918C157.727 248.068 159.511 251.208 159.828 253.451L159.351 253.819L158.474 253.359L153.55 253.499C152.088 254.597 145.274 255.535 143.138 255.806C131.573 257.272 119.519 256.971 108.321 253.444C105.182 252.456 99.999 248.694 96.746 247.948C96.663 247.929 93.063 248.213 92.25 248.191C95.466 240.826 106.047 234.363 113.313 231.327Z" fill="#060504"/>
<path d="M140.324 254.083C144.609 247.791 145.849 243.74 145.136 236.047C151.34 241.79 153.852 246.304 158.473 253.359L153.549 253.498C149.139 253.642 144.73 253.837 140.324 254.083Z" fill="#FDFDFD"/>
<path d="M136.689 235.929L142.312 236.162C142.649 244.517 142.588 246.747 136.538 252.652C129.69 254.569 115.454 254.09 115.43 243.006C115.426 241.297 116.168 241.233 117.487 240.355C117.85 242.019 119.387 243.159 121.085 243.023L120.227 243.294C122.932 249.346 131.089 252.766 135.421 246.413C138.304 242.184 137.499 240.492 136.689 235.929Z" fill="#3D2518"/>
<path d="M111.854 237.161L111.565 242.107C112.512 247.178 113.39 248.817 116.07 253.169C111.711 252.474 101.452 249.838 98.8477 246.223C99.0277 245.762 99.1256 245.37 99.4056 244.997C103.717 241.605 107.023 239.679 111.854 237.161Z" fill="#FDFDFD"/>
<path d="M111.852 237.161L111.563 242.107C106.603 243.111 104.404 244.872 99.4043 244.997C103.715 241.605 107.021 239.679 111.852 237.161Z" fill="#D4D7DD"/>
<path d="M117.487 240.355C117.184 238.969 117.772 237.539 118.964 236.768C120.156 235.997 121.701 236.047 122.842 236.892C123.982 237.738 124.479 239.202 124.088 240.566C123.697 241.931 122.5 242.91 121.085 243.023C119.387 243.159 117.85 242.019 117.487 240.355Z" fill="#FDFDFD"/>
<path d="M231.353 247.154C234.857 241.283 239.19 231.977 246.397 230.655C268.442 226.61 283.516 230.992 297.762 248.371C295.535 248.984 294.726 247.467 293.556 247.887C290.246 249.078 286.968 250.753 283.702 252.12C280.046 253.643 276.224 254.732 272.315 255.366C262.364 257.018 247.348 256.329 237.374 254.167L242.283 253.795C237.088 252.813 235.341 254.373 230.015 254.121C229.055 253.764 229.501 254.058 228.754 253.136C229.023 250.943 230.266 249.138 231.353 247.154Z" fill="#060504"/>
<path d="M230.016 254.121C234.093 247.98 238.132 241.246 243.379 236.118C242.961 244.568 243.353 246.949 248.575 253.926C246.966 253.896 243.755 253.94 242.284 253.795C237.089 252.813 235.342 254.373 230.016 254.121Z" fill="#FDFDFD"/>
<path d="M269.668 241.435C269.517 240.95 269.373 240.463 269.238 239.973C268.693 237.928 268.689 237.871 269.523 236.413C270.421 236.292 270.656 236.016 271.235 236.641C276.428 242.239 270.084 249.748 266.952 253.059C256.319 254.879 247.046 254.452 245.787 242.487C245.61 240.802 245.492 241.463 246.445 240.166L247.849 240.636L248.564 239.93C249.025 240.801 249.93 242.373 250.239 243.23C250.518 250.129 260.694 250.748 266.048 247.89C267.739 245.734 268.504 243.879 269.668 241.435Z" fill="#3D2518"/>
<path d="M276.555 239.953L276.13 238.042L276.65 237.412C280.387 237.747 287.777 243.369 290.444 246.059L290.154 246.654C285.115 250.248 277.592 252.273 271.604 253.537C275.042 248.55 276.508 246.185 276.555 239.953Z" fill="#FDFDFD"/>
<path d="M276.554 239.953L276.129 238.042L276.649 237.412C280.386 237.747 287.776 243.369 290.443 246.059C285.491 245.71 280.77 242.471 276.554 239.953Z" fill="#D4D7DD"/>
<path d="M248.564 239.93C248.747 238.162 248.619 238.209 249.782 236.905C252.526 235.704 253.933 236.093 255.45 238.881C255.438 242.335 253.247 242.835 250.239 243.23C249.93 242.373 249.025 240.801 248.564 239.93Z" fill="#FDFDFD"/>
<path d="M225.406 222.538C242.437 220.04 259.545 214.296 277.157 213.284C273.408 216.866 259.128 219.904 254.901 225.453C268.739 225.199 283.951 226.968 293.949 237.715C297.263 240.105 299.585 244.353 297.761 248.371C283.515 230.992 268.441 226.61 246.396 230.655C239.189 231.977 234.856 241.283 231.352 247.154L229.851 245.893C221.186 248.856 217.918 284.9 217.861 293.084C217.359 291.996 213.273 283.312 213.212 283.013C213.522 280.966 213.105 276.827 212.977 274.63C212.214 266.241 212.164 259.081 213.501 250.802C214.941 241.886 221.468 234.352 223.661 226.507C224.59 224.831 224.778 224.36 225.406 222.538Z" fill="url(#paint0_linear_2486_2161)"/>
<path d="M254.901 225.453C268.739 225.199 283.951 226.968 293.949 237.715C292.249 237.053 288.593 234.967 286.552 234.019C279.393 230.609 271.643 228.612 263.728 228.138C251.273 227.416 240.398 228.938 230.982 237.391L231.678 236.372C237.719 227.386 245.095 226.907 254.901 225.453Z" fill="#060504"/>
<path d="M114.775 213.854C122.76 214.061 162.574 220.591 168.317 223.557C171.122 228.378 182.958 242.35 180.981 248.172L180.342 248.3L178.916 246.529C178.624 246.573 170.32 254.103 168.413 255.451C165.51 252.075 162.409 247.269 158.49 245.593C157.85 245.682 157.266 245.713 156.673 245.918C149.891 234.644 147.89 229.998 133.984 229.481C125.917 229.182 121.197 229.154 113.313 231.328L112.882 230.046C103.857 232.667 100.73 234.937 93.0801 240.419C105.003 227.193 117.793 224.722 134.985 225.623C130.615 218.749 118.516 217.575 114.775 213.854Z" fill="#E49E7C"/>
<path d="M93.0801 240.419C105.003 227.193 117.793 224.722 134.985 225.623C144.979 226.926 152.771 228.47 158.855 237.174C146.199 226.937 128.212 226.113 112.882 230.046C103.857 232.667 100.73 234.937 93.0801 240.419Z" fill="#060504"/>
<path d="M223.661 226.507C221.468 234.352 214.941 241.886 213.501 250.802C212.164 259.081 212.214 266.241 212.977 274.63C213.105 276.827 213.522 280.966 213.212 283.013C206.452 260.756 207.522 244.102 223.661 226.507Z" fill="#060504"/>
<path d="M173.409 327.235C183.888 330.573 192.681 342.71 204.275 337.692C210.02 335.206 215.468 328.847 221.922 327.631C224.28 328.49 230.681 329.376 233.699 329.996C241.206 331.588 248.67 333.377 256.083 335.36C256.915 334.311 256.754 334.007 256.871 332.611L255.032 330.98L255.137 330.607C259.808 332.046 268.126 336.745 270.435 341.231C272.768 345.762 270.574 351.815 268.866 356.289C268.761 354.536 268.531 352.177 268.649 350.485C267.258 348.397 266.739 346.436 265.108 345.663L264.118 346.055C262.479 347.452 258.166 349.407 256.066 350.445C248.839 361.37 242.547 370.424 231.282 377.74C209.832 391.749 181.277 390.405 159.305 378.389C147.237 371.933 139.841 360.808 132.265 349.898C130.625 347.535 126.763 347.787 125.478 346.168C124.028 346.434 123.845 346.391 122.552 347.04C121.833 348.423 120.889 350.682 119.892 351.688C120.006 354.302 119.973 357.082 119.988 359.712C117.91 354.451 117.121 351.289 116.277 345.735C116.326 345.599 116.375 345.463 116.424 345.327L116.684 344.653C118.947 338.695 126.536 333.566 132.609 332.644L132.078 333.414C132.437 334.603 132.086 334.165 133.058 334.785C143.459 332.505 153.6 329.992 164.18 328.633C166.682 328.312 171.344 328.102 173.409 327.235Z" fill="#060504"/>
<path d="M173.409 327.235C183.888 330.573 192.681 342.71 204.275 337.692C210.02 335.206 215.468 328.847 221.922 327.631C224.28 328.49 230.681 329.376 233.699 329.996C241.206 331.588 248.67 333.377 256.083 335.36C256.915 334.311 256.754 334.007 256.871 332.611L255.032 330.98L255.137 330.607C259.808 332.046 268.126 336.745 270.435 341.231C272.768 345.762 270.574 351.815 268.866 356.289C268.761 354.536 268.531 352.177 268.649 350.485C267.258 348.397 266.739 346.436 265.108 345.663L264.118 346.055L262.071 344.773C259.81 345.337 258.785 346.134 256.343 346.553C253.982 347.52 250.186 347.872 247.595 348.028C238.719 349.759 220.748 350.033 211.667 350.028C187.571 350.017 160.053 350.356 136.301 347.146C133.765 346.731 132.432 346.446 129.971 345.72C129.115 345.591 128.662 344.957 127.329 344.704L125.478 346.168C124.028 346.434 123.845 346.391 122.552 347.04C121.833 348.423 120.889 350.682 119.892 351.688C120.006 354.302 119.973 357.082 119.988 359.712C117.91 354.451 117.121 351.289 116.277 345.735C116.326 345.599 116.375 345.463 116.424 345.327L116.684 344.653C118.947 338.695 126.536 333.566 132.609 332.644L132.078 333.414C132.437 334.603 132.086 334.165 133.058 334.785C143.459 332.505 153.6 329.992 164.18 328.633C166.682 328.312 171.344 328.102 173.409 327.235Z" fill="#FCC7A5"/>
<path d="M188.098 343.654C196.629 346.173 199.564 346.159 207.816 342.869L208.392 343.74C219.162 344.99 238.003 346.179 247.597 348.028C238.721 349.759 220.75 350.033 211.669 350.028C187.573 350.017 160.055 350.356 136.303 347.146L138.31 345.782C141.95 346.028 143.335 345.843 146.941 345.443C158.162 345.424 170.707 343.304 182.127 344.118C183.74 345.116 186.509 344.594 188.098 343.654Z" fill="#E49E7C"/>
<path d="M208.391 343.74L208.975 342.747C216.992 340.955 241.358 346.091 250.574 345.055C251.791 344.919 259.66 344.202 260.171 344.361C258.336 345.511 258.143 344.738 256.344 346.553C253.983 347.52 250.187 347.872 247.596 348.028C238.002 346.179 219.161 344.99 208.391 343.74Z" fill="#FCC7A5"/>
<path d="M116.277 345.736C116.326 345.6 116.375 345.464 116.424 345.328L116.684 344.654C118.947 338.696 126.536 333.567 132.609 332.645L132.078 333.415C128.348 336.218 123.113 340.432 120.409 344.172C119.884 347.288 119.538 348.507 119.892 351.689C120.006 354.303 119.973 357.083 119.988 359.713C117.91 354.452 117.121 351.29 116.277 345.736Z" fill="#060504"/>
<path d="M146.527 344.152C152.589 343.579 179.199 340.579 182.706 341.49C183.402 342.391 183.129 341.981 183.564 342.691C182.844 343.632 183.05 343.654 182.125 344.118C170.705 343.304 158.16 345.424 146.939 345.443L146.527 344.152Z" fill="#FCC7A5"/>
<path d="M256.872 332.611L255.033 330.98L255.138 330.607C259.809 332.046 268.127 336.745 270.436 341.231C272.769 345.762 270.575 351.815 268.867 356.289C268.762 354.536 268.532 352.177 268.65 350.485C268.958 347.771 268.595 345.422 268.333 342.704C265.399 339.136 260.569 335.551 256.872 332.611Z" fill="#060504"/>
<path d="M188.097 343.655C187.006 343.311 186.155 342.993 185.088 342.577L185.166 342.12C187.492 341.894 193.034 342.902 195.627 343.308C200.182 344.021 202.523 342.658 207.185 342.202L207.815 342.87C199.563 346.16 196.628 346.174 188.097 343.655Z" fill="#060504"/>
<path d="M129.973 345.72L130.869 344.386C132.81 343.819 135.243 344.286 137.318 344.501L138.31 345.782L136.303 347.146C133.767 346.731 132.434 346.446 129.973 345.72Z" fill="#FCC7A5"/>
<path d="M137.316 344.501C140.799 344.543 143.072 344.616 146.527 344.152L146.939 345.443C143.333 345.843 141.948 346.028 138.308 345.782L137.316 344.501Z" fill="#FCC7A5"/>
<path d="M140.73 350.985C151.817 352.363 165.833 352.852 177.114 353.158C199.525 353.766 224.541 354.099 246.775 351.755C244.573 354.51 243.196 356.503 240.411 358.704C222.821 366.599 193.009 368.65 174.529 365.13C165.901 363.486 152.267 361.574 145.084 356.267C144.012 355.475 141.645 352.225 140.73 350.985Z" fill="#FDFDFD"/>
<path d="M161.557 375.376C167.285 372.54 173.055 370.296 179.517 370.081C185.848 369.871 192.67 372.473 198.885 371.648C212.424 369.748 214.059 370.733 226.177 376.381C224.529 377.28 223.287 378.056 221.481 378.612C205.481 385.872 184.508 384.604 168.515 378.098C165.763 377.35 164.135 376.538 161.557 375.376Z" fill="#D05B51"/>
<path d="M161.557 375.376C167.285 372.54 173.055 370.296 179.517 370.081C185.848 369.871 192.67 372.473 198.885 371.648C212.424 369.748 214.059 370.733 226.177 376.381C224.529 377.28 223.287 378.056 221.481 378.612C218.559 375.27 208.862 375.206 204.293 374.897C194.836 374.866 175.406 372.038 168.515 378.098C165.763 377.35 164.135 376.538 161.557 375.376Z" fill="#A1312C"/>
<path d="M165.681 300.116C163.587 305.486 162.674 307.666 162.47 313.353C168.709 316.869 171.841 314.789 178.716 315.281C177.578 311.544 177.283 310.196 176.87 306.234C177.797 308.938 178.959 312.738 180.244 315.152C182.944 315.929 184.623 317.557 187.128 318.626C199.305 323.827 206.328 319.914 216.795 314.954C216.054 316.436 215.545 317.645 214.495 318.938L215.59 319.085C217.207 316.411 217.628 315.414 218.761 312.583C223.356 317.094 228.275 312.923 232.44 309.967C231.368 306.262 230.6 303.763 229.16 300.207C234.474 306.163 237.5 310.643 234.326 318.815C234.111 324.025 229.266 325.4 224.72 326.58L221.922 327.631C215.468 328.847 210.02 335.206 204.275 337.692C192.681 342.71 183.888 330.573 173.409 327.235C170.407 326.107 166.653 325.085 164.783 322.668C162.345 319.478 160.249 319.377 159.69 314.172C159.069 308.382 162.309 304.3 165.681 300.116Z" fill="#060504"/>
<path d="M227.621 323.017C231.079 321.926 231.795 321.44 234.326 318.815C234.111 324.025 229.266 325.4 224.72 326.58L221.922 327.631C215.468 328.847 210.02 335.206 204.275 337.692C192.681 342.71 183.888 330.573 173.409 327.235C170.407 326.107 166.653 325.085 164.783 322.668C169.106 322.856 174.128 322.485 178.15 323.855C186.39 326.662 188.812 333.104 198.524 332.77C209.574 332.391 216.133 319.235 227.621 323.017Z" fill="#E49E7C"/>
<path d="M178.717 315.281C177.579 311.544 177.284 310.196 176.871 306.234C177.798 308.938 178.96 312.738 180.245 315.152C182.945 315.929 184.624 317.557 187.129 318.626C199.306 323.827 206.329 319.914 216.796 314.954C216.055 316.436 215.546 317.645 214.496 318.938C201.065 332.719 196.055 333.46 182.238 319.904C174.59 317.66 172.229 320.798 165.513 319.087C164.194 318.751 162.902 314.792 162.471 313.353C168.71 316.869 171.842 314.789 178.717 315.281Z" fill="#E49E7C"/>
<path d="M178.717 315.281C177.579 311.544 177.284 310.196 176.871 306.234C177.798 308.938 178.96 312.738 180.245 315.152C180.311 315.456 180.307 316.218 180.317 316.563L179.732 316.555L178.717 315.281Z" fill="#D05B51"/>
<path d="M232.442 309.967C233.515 324.225 223.479 317.902 215.592 319.085C217.209 316.411 217.63 315.414 218.763 312.583C223.358 317.094 228.277 312.923 232.442 309.967Z" fill="#E49E7C"/>
<path d="M163.605 394.072C184.746 403.147 202.239 404.499 223.909 395.938L220.864 398.991C218.619 404.988 212.039 409.205 206.627 412.188C196.056 418.015 174.493 411.53 170.438 399.58C168.111 397.816 165.861 395.929 163.605 394.072Z" fill="#E49E7C"/>
<path d="M163.605 394.072C184.746 403.147 202.239 404.499 223.909 395.938L220.864 398.991C203.536 409.861 188.057 408.825 170.438 399.58C168.111 397.816 165.861 395.929 163.605 394.072Z" fill="#060504"/>
<path d="M148.93 261.197C150.484 260.337 149.643 260.558 151.588 260.747L151.95 261.39C147.784 270.768 124.927 277.09 118.807 268.282C120.719 267.364 127.849 267.507 130.657 266.867C136.854 265.453 142.904 263.2 148.93 261.197Z" fill="#E49E7C"/>
<path d="M118.807 268.282C120.719 267.364 127.849 267.507 130.657 266.867C136.854 265.453 142.904 263.2 148.93 261.197C143.484 266.403 132.402 269.062 125.003 268.876C122.927 268.814 120.857 268.616 118.807 268.282Z" fill="#060504"/>
<path d="M266.095 267.931C268.03 267.884 268.492 267.518 269.805 268.383L269.104 269.335C258.922 274.753 240.721 270.353 235.193 260.275C236.268 259.607 236.418 259.963 238.088 260.264C250.792 265.598 252.71 266.084 266.095 267.931Z" fill="#E49E7C"/>
<path d="M238.088 260.264C250.792 265.598 252.71 266.084 266.095 267.931C258.036 270.075 243.825 266.774 237.869 260.941L238.088 260.264Z" fill="#060504"/>
<path d="M216.796 314.954L216.832 314.844C219.117 308.051 218.487 306.22 216.81 299.261C219.391 304.475 220.134 306.678 218.762 312.583C217.629 315.414 217.208 316.411 215.591 319.085L214.496 318.938C215.546 317.645 216.055 316.436 216.796 314.954Z" fill="#895445"/>
<path d="M91.0771 448.077L92.5501 447.63C110.128 454.847 128.491 462.959 146.787 467.828C155.418 470.132 164.116 472.176 172.87 473.955C178.723 475.184 185.625 476.407 191.279 478.265C193.684 479.056 197.601 483.5 199.604 485.577C201.213 490.399 202.662 494.586 203.799 499.566C205.849 509.362 207.287 517.352 208.608 527.283C211.399 547.379 212.261 555.964 211.933 576.011C211.636 587.733 212.347 597.53 213.962 609.181C214.636 614.05 213.86 619.525 214.09 624.347C214.928 629.719 213.143 642.684 213.311 649.805C214.274 661.834 214.762 669.013 211.899 680.988C211.194 683.448 210.469 685.901 209.724 688.348L209.407 688.377C195.71 689.706 179.288 688.391 165.451 687.507C160.884 687.216 155.551 685.672 150.868 685.156C142.156 684.198 133.422 682.978 124.785 681.486C118.426 680.446 102.711 675.533 97.4331 676.015C97.2721 673.913 90.1851 665.217 90.1741 661.703C90.1711 660.564 89.4451 659.83 88.4801 659.311C87.0221 659.708 87.7081 659.366 86.6211 660.838L86.5181 654.686C94.7811 656.199 97.8131 655.72 105.802 653.501C110.625 656.5 112.638 657.569 118.289 657.455C116.889 659.382 116.168 660.376 115.078 662.479C115.27 666.034 120.263 668.431 123.388 668.7L123.62 668.13C122.004 665.916 120.697 665.31 118.403 663.831C120.765 661.639 122.987 658.874 125.101 656.393C136.116 642.883 144.025 627.344 150.708 611.372C153.979 613.472 156.181 614.484 159.727 616.141C144.273 598.766 149.557 624.06 135.328 610.144C134.217 609.058 132.072 603.749 132.016 602.679C131.602 594.723 110.896 586.891 110.405 584.448C111.654 583.383 115.667 583.261 117.486 583.086C114.734 582.058 111.772 581.651 108.873 581.142C105.878 577.153 102.98 575.116 99.4541 572.212C96.3051 569.619 106.984 557.253 108.601 553.47C112.107 545.272 111.027 537.509 116.269 530.21C119.897 525.158 122.375 517.461 122.122 511.263L121.629 511.14C119.958 513.598 118.806 517.14 117.736 519.978C116.546 503.134 113.599 493.549 105.876 478.89C102.011 473.553 90.8911 459.133 84.1461 459.302L84.2851 459.713C90.6331 462.949 95.5731 466.651 98.8981 473.156C109.137 485.179 113.539 503.034 112.42 518.707C111.923 525.659 109.357 528.653 107.982 534.51C104.801 548.059 101.379 554.485 93.2851 566.205C85.0961 558.093 74.8441 553.58 63.2651 553.673C61.3931 553.688 57.3341 553.551 55.7911 554.319L55.4901 555.378C67.5761 555.756 74.4581 557.67 84.5461 564.732C86.4471 565.699 88.7861 566.788 89.8371 568.629C81.0751 566.761 79.9801 565.698 70.2641 565.839C62.4971 566.081 54.3761 567.945 47.5121 571.65C50.4421 571.449 52.3651 571.346 55.2801 570.739C66.4191 568.398 76.0861 568.85 86.9711 571.924C79.1181 572.748 75.9331 573.249 68.4231 575.692C64.0221 577.663 62.2181 579.247 58.3211 582.001L58.4021 582.083C62.1631 581.377 71.8971 577.194 77.2871 575.71C82.6321 574.135 87.7361 572.739 92.9391 575.532C93.3181 575.737 93.6941 575.949 94.0661 576.166C100.953 579.668 103.344 584.017 106.575 590.63C101.371 592.206 98.2391 593.812 93.8741 597.153C98.5161 595.375 103.093 593.431 107.595 591.324C119.119 594.848 127.149 599.509 128.144 612.486C130.32 613.72 132.65 615.106 134.848 616.258C129.849 624.899 125.343 634.099 120.352 642.945C117.692 641.647 116.167 640.659 113.726 639.075C118.8 627.027 122.071 622.506 129.339 611.686C125.459 614.009 124.418 615.181 121.319 618.366C119.617 621.913 116.393 626.486 114.481 630.184C111.412 636.118 108.363 642.003 105.147 647.862C90.8611 651.861 80.5151 647.786 70.7021 637.124C57.4571 634.518 48.3031 631.454 40.0271 620.08C38.5701 618.466 36.6171 613.392 35.1801 612.093C20.9891 599.25 15.4731 594.909 18.2911 574.599C18.8841 570.243 19.2981 565.965 21.2961 562.002C22.7121 558.897 24.3091 556.278 24.1121 552.94C23.3321 541.67 29.2951 521.568 35.6871 513.118C45.2201 500.516 42.7061 506.269 45.0941 490.411C46.8131 478.989 60.5791 464.004 70.7911 457.825C72.6901 458.135 74.7431 458.605 76.6421 458.998C77.8231 459.037 78.6721 459 79.8401 458.957L80.3131 458.277L79.4861 457.041L74.5621 455.088C80.3051 451.831 84.8911 450.201 91.0771 448.077Z" fill="#303030"/>
<path d="M140.295 650.762C140.212 650.934 140.129 651.106 140.046 651.278C139.575 654.183 129.582 663.415 129.953 664.808C136.274 664.881 140.993 668.536 146.723 670.821C153.517 673.529 160.309 675.745 167.33 677.759C181.928 682.339 196.773 686.593 211.899 680.988C211.194 683.448 210.469 685.901 209.724 688.348L209.407 688.377C195.71 689.706 179.288 688.391 165.451 687.507C160.884 687.216 155.551 685.672 150.868 685.156C142.156 684.198 133.422 682.978 124.785 681.486C118.426 680.446 102.711 675.533 97.4326 676.015C97.2716 673.913 90.1846 665.217 90.1736 661.703C90.1706 660.564 89.4446 659.83 88.4796 659.311C87.0216 659.708 87.7076 659.366 86.6206 660.838L86.5176 654.686C94.7806 656.199 97.8126 655.72 105.802 653.501C110.625 656.5 112.638 657.569 118.289 657.455C116.889 659.382 116.168 660.376 115.078 662.479C115.27 666.034 120.263 668.431 123.388 668.7L123.62 668.13C122.004 665.916 120.697 665.31 118.403 663.831C120.765 661.639 122.987 658.874 125.101 656.393C128.038 657.581 129.354 657.5 132.286 658.165C134.921 655.738 137.726 653.236 140.295 650.762Z" fill="#222222"/>
<path d="M18.2911 574.599L18.4721 575.095C20.6661 581.242 20.7931 587.164 27.2731 591.195C33.0271 594.774 38.3411 592.111 43.4051 588.843C41.2211 595.901 38.9481 601.718 42.0481 608.713C45.1511 615.714 60.5071 626.213 67.6021 621.934C71.2441 619.738 78.2051 602.481 85.7091 603.19C85.9111 604.599 85.8711 603.915 84.8361 605.607C81.9441 610.48 79.7271 614.538 77.4441 619.754C78.0701 623.445 76.9701 627.745 79.0281 631.714C81.0411 635.647 85.2211 637.035 89.0271 638.436C108.512 645.608 108.08 624.557 121.319 618.366C119.617 621.913 116.393 626.486 114.481 630.184C111.412 636.118 108.363 642.003 105.147 647.862C90.8611 651.861 80.5151 647.786 70.7021 637.124C57.4571 634.518 48.3031 631.454 40.0271 620.08C38.5701 618.466 36.6171 613.392 35.1801 612.093C20.9891 599.25 15.4731 594.909 18.2911 574.599Z" fill="#222222"/>
<path d="M77.4444 619.754C75.1424 623.774 73.9254 629.698 72.6014 631.691L71.9324 631.283C70.3164 625.089 79.5994 606.439 84.8364 605.607C81.9444 610.48 79.7274 614.538 77.4444 619.754Z" fill="#060504"/>
<path d="M98.8969 473.156C109.136 485.179 113.538 503.034 112.419 518.707C111.922 525.659 109.356 528.653 107.981 534.51C104.8 548.059 101.378 554.485 93.2839 566.205C85.0949 558.093 74.8429 553.58 63.2639 553.673C61.3919 553.688 57.3329 553.551 55.7899 554.319L55.4889 555.378C53.3109 556.233 39.7779 557.503 37.9199 556.184C40.0559 549.049 66.8799 548.671 72.9419 550.778C76.6709 552.074 80.7519 554.018 84.7049 554.653C93.8419 556.121 100.851 532.546 96.6339 527.74C79.2919 517.412 74.3589 513.706 54.5609 506.679L50.5989 505.273C50.4159 504.842 50.2359 504.409 50.0609 503.975C49.1579 501.737 48.7669 501.124 49.6079 499.137C57.6499 493.762 77.4629 507.45 83.5829 512.195C87.2629 515.048 91.2059 518.45 95.0479 520.99C110.155 530.974 106.721 501.801 105.31 495.055C103.792 487.8 100.662 481.008 99.0449 473.832L98.8969 473.156Z" fill="#222222"/>
<path d="M54.5625 506.68C60.3055 503.958 95.6365 520.682 96.6015 527.518L96.6355 527.741C79.2935 517.413 74.3605 513.707 54.5625 506.68Z" fill="#060504"/>
<path d="M70.7909 457.825C72.6899 458.135 74.7429 458.605 76.6419 458.998C67.7459 463.707 62.8099 468.108 56.6159 476.124C48.7889 486.254 48.0019 494.522 46.6659 506.903C35.7949 516.12 31.0629 526.055 28.3769 540.157C27.6389 544.033 27.1919 550.318 25.9009 553.744L24.1119 552.94C23.3319 541.67 29.2949 521.568 35.6869 513.118C45.2199 500.516 42.7059 506.269 45.0939 490.411C46.8129 478.989 60.5789 464.004 70.7909 457.825Z" fill="#7E7E7E"/>
<path d="M214.09 624.347C214.928 629.719 213.143 642.684 213.311 649.805L212.78 647.669C209.166 645.567 205.522 649.211 199.931 646.816C193.185 647.258 163.395 644.915 158.93 641.428L162.386 641.548C166.164 640.67 169.997 641.162 174.063 640.963C184.069 640.471 197.335 640.833 206.729 637.841C211.438 636.341 212.295 629.054 214.09 624.347Z" fill="#222222"/>
<path d="M199.931 646.816C193.185 647.258 163.395 644.915 158.93 641.428L162.386 641.548C179.289 646.395 195.589 643.017 211.251 644.637C207.103 645.648 204.165 646.183 199.931 646.816Z" fill="#060504"/>
<path d="M55.2793 570.739C66.4183 568.398 76.0853 568.85 86.9703 571.924C79.1173 572.748 75.9323 573.249 68.4223 575.692C68.7903 574.365 68.9943 574.102 68.8483 572.764C66.1773 570.304 61.4143 573.103 55.2793 570.739Z" fill="#222222"/>
<path d="M91.0775 448.077L92.4395 448.515C91.6715 450.271 82.3555 454.936 79.4865 457.041L74.5625 455.088C80.3055 451.831 84.8915 450.201 91.0775 448.077Z" fill="url(#paint1_linear_2486_2161)"/>
<path d="M77.2871 575.71C82.6321 574.135 87.7361 572.739 92.9391 575.532C93.3181 575.737 93.6941 575.949 94.0661 576.166C89.2661 575.885 80.9211 576.838 77.2871 575.71Z" fill="#222222"/>
<path d="M70.2637 565.84C76.1897 565.236 78.4877 564.328 84.5457 564.733C86.4467 565.7 88.7857 566.788 89.8367 568.629C81.0747 566.761 79.9797 565.699 70.2637 565.84Z" fill="#222222"/>
<path d="M24.1109 552.94L25.8999 553.744C24.7239 556.799 24.0429 558.731 22.3819 561.557L21.2949 562.002C22.7109 558.897 24.3079 556.278 24.1109 552.94Z" fill="#7E7E7E"/>
<path d="M134.363 527.808C132.956 527.164 132.88 527.207 131.754 526.187L132.158 525.787C136.242 525.471 140.974 526.552 145.135 526.746C150.315 526.987 155.585 527.077 160.769 527.106C169.605 527.104 178.439 526.917 187.267 526.545C191.155 526.371 201.719 525.624 204.977 526.091L205.459 526.746C188.236 529.331 174.684 530.723 157.195 529.257C154.524 529.033 135.167 527.551 134.363 527.808Z" fill="#060504"/>
<path d="M121.119 572.25C123.396 573.593 129.985 581.077 130.816 584.228C127.148 583.188 122.667 575.68 121.119 572.25Z" fill="#060504"/>
<path d="M181.216 7.62623C185.408 7.06603 194.33 7.17533 198.611 7.49673C239.33 10.5533 273.765 30.9533 300.118 61.2203C344.609 112.32 332.192 172.801 327.974 233.786C326.217 216.985 324.821 203.014 318.467 186.933C317.084 182.234 309.832 172.311 309.68 167.872C308.994 147.89 315.336 127.405 307.128 107.937C303.327 98.9213 295.501 85.0623 285.711 80.9263C278.405 83.6653 271.278 87.4463 263.544 90.2153C237.999 99.3633 209.673 103.862 182.627 101.548C158.4 99.7693 134.273 92.5223 111.731 83.7483C99.6661 79.0523 93.5891 83.4193 85.4931 92.3103C64.2331 115.66 74.5581 146.54 75.9521 174.269C59.2501 197.096 52.8941 214.892 51.7931 243.544C46.1971 225.982 42.1841 209.511 41.1041 191.203C38.3201 144.016 41.2921 98.8563 73.1331 61.1723C103.942 24.7103 134.633 11.6036 181.216 7.62623Z" fill="#BA9C86"/>
<path d="M112.024 706.666C120.065 707.484 128.536 709.384 136.639 710.613C147.545 712.182 158.426 713.917 169.279 715.818C173.243 716.501 181.726 717.826 185.286 719.124C185.058 720.424 184.817 720.448 183.894 721.464L187.029 721.342C186.745 722.723 186.717 723.096 186.15 724.411C176.038 746.859 166.53 767.68 157.245 790.53C155.839 796.261 153.305 802.5 151.472 808.214C149.104 815.807 147.126 823.516 145.546 831.31C133.903 826.94 129.986 824.785 117.818 829.997C117.327 827.433 117.105 826.251 117.027 823.661C116.911 815.155 116.161 805.799 115.807 797.202L111.975 712.942C112.042 710.791 112.135 708.821 112.024 706.666Z" fill="#303030"/>
<path d="M157.243 790.529C155.837 796.26 153.303 802.499 151.47 808.213C149.102 815.806 147.124 823.515 145.544 831.309C133.901 826.939 129.984 824.785 117.816 829.997C117.325 827.433 117.103 826.251 117.025 823.661C117.308 825.022 117.274 825.315 117.935 826.511C123.071 824.27 129.078 823.882 134.279 821.348C142.251 817.464 147.105 807.776 151.45 800.437C153.615 796.78 154.169 793.841 157.243 790.529Z" fill="#222222"/>
<path d="M183.893 721.463L187.028 721.341C186.744 722.722 186.716 723.096 186.149 724.411C183.708 724.868 184.683 724.284 183.133 726.25C181.443 726.766 182.251 726.811 180.626 726.096C179.813 724.478 179.997 725.332 180.207 723.415C181.149 722.113 182.315 721.974 183.893 721.463Z" fill="#1A1A1A"/>
<path d="M146.877 726.63C146.985 726.818 147.123 726.992 147.203 727.194C148.101 729.48 139.886 778.796 138.111 784.187C137.207 782.282 139.399 773.247 139.791 770.562C141.122 761.101 142.557 751.655 144.095 742.225C144.771 737.971 145.717 730.594 146.877 726.63Z" fill="#060504"/>
<path d="M284.543 477.719C284.499 476.333 284.933 465.011 285.18 463.72L285.596 464.012C291.98 472.415 299.774 482.757 301.17 493.488C301.621 496.957 301.552 503.413 303.196 506.326C308.184 515.166 312.583 518.519 315.015 528.782C316.949 536.941 315.037 542.669 317.017 550.255C319.005 557.873 325.71 563.223 324.343 571.701C323.701 575.687 322.635 578.969 321.491 582.821L321.397 583.259C325.16 588.738 330.578 599.424 329.401 606.219C329.04 608.305 327.26 613.789 327.442 615.468C328.6 626.158 334.937 632.427 328.199 643.497C325.089 649.431 309.184 648.746 302.997 648.458L294.289 648.116C292.988 641.459 291.973 635.439 289.262 629.162C294.516 613.694 292.743 592.862 285.14 578.494C289.886 562.813 291.384 548.78 286.873 532.948C283.815 522.215 282.395 520.171 284.553 509.048C285.852 502.356 283.451 491.576 281.803 484.843L282.506 484.845L283.226 485.05C284.091 483.801 284.248 479.723 284.543 477.719Z" fill="#303030"/>
<path d="M284.543 477.719C287.019 488.559 288.302 499.397 289.993 510.385C292.711 508.519 296.08 505.491 299.139 506.058L299.803 507.879L300.248 508.502L299.43 509.079C297.52 510.863 295.619 512.604 293.796 514.479C288.668 526.182 291.751 541.367 297.318 552.427L297.626 553.051L297.816 553.423C300.04 553.405 305.046 553.077 306.732 553.462L308.555 552.721L308.623 553.1C307.049 554.288 305.609 555.351 303.976 556.457L303.363 557.212C297.337 564.496 292.401 566.534 295.288 578.081C298.562 577.921 302.276 577.588 305.496 577.992L305.873 578.34C304.918 578.767 304.496 578.968 303.501 579.295L303.916 580.158C307.533 580.924 310.674 580.51 314.971 581.409C310.766 583.16 298.121 585.984 296.89 589.98C294.457 597.878 295.914 610.983 301.061 617.655C298.403 618.184 295.484 618.681 292.906 619.446C299.357 620.127 303.32 618.752 309.442 618.864C304.724 621.795 299.314 621.693 297.919 628.103C296.391 635.124 299.373 642.578 302.997 648.458L294.289 648.116C292.988 641.459 291.973 635.439 289.262 629.162C294.516 613.694 292.743 592.862 285.14 578.494C289.886 562.813 291.384 548.78 286.873 532.948C283.815 522.215 282.395 520.171 284.553 509.048C285.852 502.356 283.451 491.576 281.803 484.843L282.506 484.845L283.226 485.05C284.091 483.801 284.248 479.723 284.543 477.719Z" fill="#222222"/>
<path d="M295.288 578.081C298.562 577.921 302.276 577.588 305.496 577.992L305.873 578.34C304.918 578.767 304.496 578.968 303.501 579.295C300.265 578.912 289.799 583.464 287.449 580.727L287.796 579.975C289.8 578.811 292.905 578.502 295.288 578.081Z" fill="#060504"/>
<path d="M306.731 553.462L308.554 552.721L308.622 553.1C307.048 554.288 305.608 555.351 303.975 556.457C300.587 557.517 298.775 558.312 295.211 558.341C295.901 556.855 304.611 554.264 306.731 553.462Z" fill="#060504"/>
<path d="M293.796 514.479C292.249 515.06 292.029 515.257 290.355 515.273L290.279 514.666C291.926 513.018 297.206 509.057 299.43 509.079C297.52 510.863 295.619 512.604 293.796 514.479Z" fill="#060504"/>
<path d="M284.542 477.719C284.498 476.333 284.932 465.011 285.179 463.72L285.595 464.012C291.979 472.415 299.773 482.757 301.169 493.488C301.62 496.957 301.551 503.413 303.195 506.326C308.183 515.166 312.582 518.519 315.014 528.782C316.948 536.941 315.036 542.669 317.016 550.255C319.004 557.873 325.709 563.223 324.342 571.701C323.7 575.687 322.634 578.969 321.49 582.821L320.184 582.075C320.615 579.124 321.689 577.804 321.9 574.34C322.394 566.234 317.329 561.15 315.149 553.998C314.026 550.313 314.274 544.271 314.019 540.126C313.193 528.317 308.33 517.151 300.247 508.502L299.802 507.879L299.138 506.058C296.079 505.491 292.71 508.519 289.992 510.385C288.301 499.397 287.018 488.559 284.542 477.719Z" fill="#7E7E7E"/>
<path d="M284.542 477.719C284.498 476.333 284.932 465.011 285.179 463.72L285.595 464.012C285.099 470.173 287.192 472.503 290.65 477.486C297.234 486.976 301.217 496.122 299.802 507.879L299.138 506.058C296.079 505.491 292.71 508.519 289.992 510.385C288.301 499.397 287.018 488.559 284.542 477.719Z" fill="#303030"/>
<path d="M321.397 583.259C325.16 588.738 330.578 599.424 329.401 606.219C329.04 608.305 327.26 613.789 327.442 615.468C328.6 626.158 334.937 632.427 328.199 643.497C328.222 642.673 328.162 642.606 328.382 641.873C330.676 634.21 329.042 623.046 323.139 617.34C326.232 611.144 328.765 603.791 326.513 596.85C325.369 593.324 320.995 586.749 321.397 583.259Z" fill="url(#paint2_linear_2486_2161)"/>
<path d="M301.061 617.656C307.552 616.886 313.864 616.726 320.39 616.478C315.895 618.085 314.113 618.139 309.442 618.865C303.32 618.753 299.357 620.128 292.906 619.447C295.484 618.682 298.403 618.185 301.061 617.656Z" fill="#060504"/>
<path d="M266.666 703.601L268.462 703.522C265.426 739.202 258.628 780.592 258.299 815.417C259.248 817.038 260.183 818.706 261.21 820.274L261.898 820.919C259.135 825.834 240.712 824.952 235.388 824.836C233.435 824.889 233.122 824.932 231.25 824.505C229.882 823.239 229.444 821.722 229.055 819.876C222.365 788.151 214.657 752.837 203.135 722.625C207.503 721.534 212.67 719.82 217.047 718.502C221.761 716.615 226.067 715.677 230.622 713.197C232.491 712.804 234.689 711.031 237.505 710.433C246.917 708.434 257.615 706.854 266.666 703.601Z" fill="#303030"/>
<path d="M203.135 722.625C207.503 721.534 212.67 719.82 217.047 718.502C220.123 720.249 231.635 720.797 235.687 721.116C226.815 723.933 218.304 724.248 213.854 733.554C215.667 737.827 216.777 742.017 217.895 746.516C224.003 769.784 228.768 793.877 234.811 817.228C235.314 819.171 235.148 822.641 235.388 824.836C233.435 824.889 233.122 824.932 231.25 824.505C229.882 823.239 229.444 821.722 229.055 819.876C222.365 788.151 214.657 752.837 203.135 722.625Z" fill="#222222"/>
<path d="M217.894 746.516L217.725 747.158L217.128 747.434C215.716 745.559 212.004 732.686 211.908 730.027C212.966 730.667 213.245 732.123 213.853 733.554C215.666 737.827 216.776 742.017 217.894 746.516Z" fill="#060504"/>
<path d="M266.665 703.601L268.461 703.522C265.425 739.202 258.627 780.592 258.298 815.417C259.247 817.038 260.182 818.706 261.209 820.274L259.9 819.733C258.817 818.48 257.611 817.496 256.373 816.396C257.114 808.834 257.259 800.028 257.936 792.107L263.244 736.424C264.014 728.095 264.987 710.96 266.665 703.601Z" fill="#7E7E7E"/>
<path d="M256.374 816.396C257.612 817.496 258.818 818.48 259.901 819.733C258.537 819.681 253.515 818.445 252.5 817.612C253.898 816.491 254.324 816.757 256.374 816.396Z" fill="#060504"/>
<path d="M263.902 450.016L267.652 448.344C273.597 451.942 278.042 454.49 282.475 459.902L282.425 468.435C282.521 473.901 282.678 479.382 282.506 484.845L281.803 484.843C280.14 479.815 279.534 477.964 276.846 473.3C277.529 479.159 278.594 484.963 278.955 490.801C280.527 501.999 278.485 509.608 277.232 520.418C275.235 519.322 274.546 520.669 271.016 520.243C254.32 523.575 243.481 525.731 226.305 525.508C225.093 526.115 224.207 526.003 223.29 526.765C223.041 525.871 222.337 519.261 222.177 517.937C220.612 506.77 218.283 495.723 215.205 484.876C217.794 475.9 221.628 475.411 229.716 471.642C241.904 465.962 254.612 460.275 263.593 449.921L263.902 450.016Z" fill="#303030"/>
<path d="M272.384 506.688C274.048 500.758 276.307 496.308 278.956 490.801C280.528 501.999 278.486 509.608 277.233 520.418C275.236 519.322 274.547 520.669 271.017 520.243C254.321 523.575 243.482 525.731 226.306 525.508C225.094 526.115 224.208 526.003 223.291 526.765C223.042 525.871 222.338 519.261 222.178 517.937C238.917 514.721 256.037 515.156 272.384 506.688Z" fill="#222222"/>
<path d="M226.305 525.508C228.042 523.257 233.604 522.517 236.052 522.589C241.203 522.739 269.166 518.296 271.418 519.178L271.016 520.243C254.32 523.575 243.481 525.731 226.305 525.508Z" fill="#060504"/>
<path d="M263.902 450.016L267.652 448.344C273.597 451.942 278.042 454.49 282.475 459.902L282.425 468.435C279.274 463.065 276.923 461.007 272.295 456.912C270 454.881 265.04 452.084 263.902 450.016Z" fill="#7E7E7E"/>
<path d="M271.015 520.243C274.545 520.669 275.234 519.322 277.231 520.418C278.843 527.665 281.747 538.06 282.126 545.1C285.991 557.563 277.993 573.578 280.031 582.931C265.466 583.564 248.984 587.915 234.245 589.083C231.521 589.298 228.032 589.636 225.375 590.075C225.487 586.392 225.802 582.718 226.317 579.07C227.838 563.513 225.199 542.153 223.289 526.765C224.206 526.003 225.092 526.115 226.304 525.508C243.48 525.731 254.319 523.575 271.015 520.243Z" fill="#303030"/>
<path d="M282.126 545.1C285.991 557.563 277.993 573.578 280.031 582.931C265.466 583.564 248.984 587.915 234.245 589.083C231.521 589.298 228.032 589.636 225.375 590.075C225.487 586.392 225.802 582.718 226.317 579.07C233.642 581.019 258.338 571.411 265.205 567.767C268.952 565.805 272.429 563.367 275.551 560.514C280.527 555.879 281.908 551.824 282.126 545.1Z" fill="#222222"/>
<path d="M271.933 579.136L272.091 579.22L272.103 579.742C262.898 584.115 240.792 587.323 230.616 586.03L229.702 585.646L229.662 584.898C231.582 584.072 249.061 582.633 252.254 582.236C258.837 581.355 265.398 580.321 271.933 579.136Z" fill="#060504"/>
<path d="M97.5415 393.396L100.74 396.359L105.28 401.079C107.367 402.933 109.319 404.633 111.251 406.663C104.709 410.552 104.675 412.733 99.7105 417.385C98.8535 418.966 98.3865 419.939 98.7655 421.574C100.394 421.117 103.388 417.453 106.009 415.753L106.47 416.159C112.574 422.096 119.277 424.907 127.135 427.785C130.724 429.1 134.628 430.23 137.507 432.684C140.584 436.113 143.722 438.259 146.81 441.265C159.935 454.046 168.399 457.164 186.672 458.215C190.133 458.383 193.597 458.472 197.062 458.483C196.831 462.082 196.533 465.106 196.088 468.687C190.784 468.672 175.969 467.349 172.08 467.782C180.753 470.725 186.415 471.705 195.58 472.52C197.014 476.819 198.564 481.174 199.605 485.577C197.602 483.5 193.685 479.056 191.28 478.265C185.626 476.407 178.724 475.184 172.871 473.955C164.117 472.176 155.419 470.133 146.788 467.829C128.492 462.96 110.129 454.848 92.5505 447.631C108.496 446.064 115.665 444.142 128.274 454.752C137.914 462.863 154.924 465.649 167.338 465.437C159.47 462.005 149.94 460.683 142.058 456.619C126.579 448.636 115.709 437.09 98.2095 432.715C101.078 434.986 105.91 438.164 109.028 440.363C95.5205 440.211 87.2955 442.101 75.2655 447.913C75.0235 447.703 74.6655 447.431 74.5655 447.118C70.5775 434.558 71.9225 420.397 79.3225 409.332C84.1395 402.13 90.3165 397.795 97.5415 393.396Z" fill="url(#paint3_linear_2486_2161)"/>
<path d="M97.5415 393.396L100.74 396.359C80.6995 406.862 73.5155 424.881 75.3895 446.309C75.4555 447.057 75.3965 447.037 75.2655 447.913C75.0235 447.703 74.6655 447.431 74.5655 447.118C70.5775 434.558 71.9225 420.397 79.3225 409.332C84.1395 402.13 90.3165 397.795 97.5415 393.396Z" fill="#7E7E7E"/>
<path d="M106.469 416.159C112.573 422.096 119.276 424.907 127.134 427.785C130.723 429.1 134.627 430.23 137.506 432.684C136.029 434.986 134.248 434.362 131.9 433.951C125.473 432.826 103.746 425.226 106.469 416.159Z" fill="url(#paint4_linear_2486_2161)"/>
<path d="M105.278 401.079C107.365 402.933 109.317 404.633 111.249 406.663C104.707 410.552 104.673 412.733 99.709 417.385C100.496 410.878 101.397 406.526 105.278 401.079Z" fill="#222222"/>
<path d="M8.6687 225.393C15.4637 202.268 31.6787 216.71 42.9117 226.348C43.2787 226.626 43.6457 226.903 44.0117 227.18C45.6497 232.55 47.1337 241.247 47.8717 246.618C48.2097 249.117 48.5257 251.619 48.8197 254.123C42.8847 243.432 35.1377 231.619 22.9387 227.523C18.9287 226.177 15.1417 228.369 13.1867 231.876C25.3667 227.418 18.5767 236.5 18.5307 245.517C18.5537 251.487 19.7537 256.22 22.1887 261.584C20.9547 254.701 20.8247 251.468 21.0197 244.444C21.4717 238.901 21.7997 236.832 24.1177 231.717C33.9467 237.422 40.8037 245.861 45.7437 256.045C26.6487 272.793 41.2907 292.303 51.4517 288.424C50.3777 287.605 49.8547 287.458 48.6667 286.899C34.7687 280.352 38.2327 266.758 47.9957 258.594C51.7227 265.234 53.5847 283.625 55.0327 292.156C55.8017 297.083 56.6697 301.995 57.6387 306.886C43.2027 317.321 33.1897 300.658 26.3477 290.028C13.5907 270.208 3.2777 249.575 8.6687 225.393Z" fill="#FCC7A5"/>
<path d="M24.1175 231.717C33.9465 237.422 40.8035 245.861 45.7435 256.045C26.6485 272.793 41.2905 292.303 51.4515 288.424C50.3775 287.605 49.8545 287.458 48.6665 286.899C34.7685 280.352 38.2325 266.758 47.9955 258.594C51.7225 265.234 53.5845 283.625 55.0325 292.156C54.3075 291.852 53.6225 291.515 52.9415 291.121C33.7175 293.837 34.9555 273.521 32.8065 260.458C31.8625 254.721 27.0035 245.794 21.0195 244.444C21.4715 238.901 21.7995 236.832 24.1175 231.717Z" fill="#E49E7C"/>
<path d="M8.66797 225.393C15.463 202.268 31.678 216.71 42.911 226.348L41.791 227.477C39.098 227.062 28.535 218.62 24.14 218.525C19.4 218.423 14.942 220.979 11.585 224.002L10.28 225.183L9.81198 225.618L8.66797 225.393Z" fill="#FDDBC0"/>
<path d="M13.1877 231.876C25.3677 227.418 18.5777 236.5 18.5317 245.517C13.3797 243.745 11.7727 236.544 13.1877 231.876Z" fill="#E49E7C"/>
<path d="M225.375 590.075C228.032 589.636 231.521 589.298 234.245 589.083C248.984 587.915 265.466 583.564 280.031 582.931C285.66 599.996 287.567 609.721 283.314 627.679C280.49 622.901 277.436 618.35 274.3 613.801C267.282 603.619 266.133 600.978 258.781 612.481C261.643 610.47 263.638 608.847 265.865 606.072C272.999 618.639 278.465 628.86 284.601 641.973C283.989 643.651 283.289 645.765 282.616 647.375C277.967 635.684 269.288 620.31 261.036 611.12C264.189 619.273 268.721 624.91 272.017 631.919C257.523 635.562 242.173 638.121 227.226 636.822C230.801 621.143 228.327 605.516 225.375 590.075Z" fill="#303030"/>
<path d="M227.226 636.822C242.173 638.121 257.523 635.562 272.017 631.919C272.35 632.414 273.517 634.069 273.727 634.496C275.426 637.703 280.533 647.792 282.937 649.831C284.17 647.937 285.243 646.236 286.641 644.448C288.766 654.629 288.771 661.88 282.846 670.926C282.586 671.321 282.322 671.713 282.054 672.103C272.796 676.887 235.666 686.17 224.623 687.117L226.633 680.011C230.095 668.89 228.617 656.645 226.348 645.458C226.178 642.455 226.719 639.757 227.226 636.822Z" fill="#303030"/>
<path d="M286.641 644.448C288.766 654.629 288.771 661.88 282.846 670.926C282.586 671.321 282.322 671.713 282.054 672.103C272.796 676.887 235.666 686.17 224.623 687.117L226.633 680.011C230.908 681.592 294.997 666.339 282.937 649.831C284.17 647.937 285.243 646.236 286.641 644.448Z" fill="#222222"/>
<path d="M227.226 636.822C242.173 638.121 257.523 635.562 272.017 631.919C272.35 632.414 273.517 634.069 273.727 634.496C271.599 635.402 269.854 636.302 267.574 636.653C255.847 641.187 241.68 644.22 229.085 643.947C227.986 644.668 227.59 645.008 226.348 645.458C226.178 642.455 226.719 639.757 227.226 636.822Z" fill="#222222"/>
<path d="M229.086 643.947L228.82 642.867C230.461 642.033 245.824 640.379 249.422 639.775C253.369 639.113 264.507 636.352 267.575 636.653C255.848 641.187 241.681 644.22 229.086 643.947Z" fill="#060504"/>
<path d="M333.766 227.044C333.844 225.828 333.886 223.053 334.637 222.148C338.192 217.952 343.665 213.856 349.192 212.788C358.149 211.058 361.742 218.39 363.229 225.55C368.714 243.094 358.765 267.804 350.191 283.217C345.34 291.936 336.459 312.196 323.315 308.046C321.347 307.425 324.745 291.126 325.22 288.612C333.323 286.006 336.82 282.214 338.651 273.995L338.547 273.506L338.362 272.695C336.632 264.896 334.325 262.212 329.445 256.064C332.842 246.647 339.869 236.503 348.4 231.055C351.022 237.483 352.157 244.557 351.042 251.454C350.869 254.866 350.577 258.099 350.261 261.5C352.894 254.399 353.137 252.416 353.982 244.757C353.776 241.805 353.701 239.019 352.773 236.206C352.156 234.338 350.981 232.031 351.449 230.239C353.4 229.19 354.747 229.623 357.143 229.788C348.176 219.348 334.152 239.063 329.374 245.592C331.338 239.313 332.557 233.469 333.766 227.044Z" fill="#FCC7A5"/>
<path d="M329.445 256.064C332.842 246.647 339.869 236.503 348.4 231.055C351.022 237.483 352.157 244.557 351.042 251.454C350.939 249.696 350.844 247.937 350.759 246.178C344.766 245.266 340.058 260.487 339.778 265.24C339.628 267.778 339.742 271.925 338.651 273.995L338.547 273.506L338.362 272.695C336.632 264.896 334.325 262.212 329.445 256.064Z" fill="#E49E7C"/>
<path d="M333.768 227.044C333.846 225.828 333.888 223.053 334.639 222.148C338.194 217.952 343.667 213.856 349.194 212.788C358.151 211.058 361.744 218.39 363.231 225.55L362.686 225.905C357.989 221.77 358.051 220.388 352.151 218.028C345.444 219.76 340.283 221.824 335.19 226.701L333.768 227.044Z" fill="#FDDBC0"/>
<path d="M357.143 229.788C359.725 232.702 360.168 236.426 357.543 239.198C355.961 240.867 355.133 243.525 353.982 244.757C353.776 241.805 353.701 239.019 352.773 236.206C352.156 234.338 350.981 232.031 351.449 230.239C353.4 229.19 354.747 229.623 357.143 229.788Z" fill="#E49E7C"/>
<path d="M111.057 696.867C145.081 705.516 184.508 709.092 219.628 706.003C234.422 704.701 254.244 700.054 268.541 696.335L268.463 703.522L266.667 703.601C257.616 706.854 246.918 708.434 237.506 710.433C234.69 711.031 232.492 712.804 230.623 713.197C227.269 711.108 191.671 719.057 187.029 721.341L183.894 721.463C184.817 720.447 185.058 720.423 185.286 719.123C181.726 717.825 173.243 716.5 169.279 715.817C158.426 713.916 147.545 712.181 136.639 710.612C128.536 709.383 120.065 707.483 112.024 706.665C112.135 708.82 112.042 710.79 111.975 712.941C111.492 709.82 111.304 700.648 111.057 696.867Z" fill="#222222"/>
<path d="M261.904 416.696L263.237 416.298C268.849 421.164 272.718 441.161 265.013 442.985L264.413 443.204C262.929 443.735 262.217 444.168 260.686 443.899C259.839 442.628 260.21 441.062 260.319 439.425L259.777 439.172C256.282 440.964 252.534 448.494 247.208 452.801C240.949 457.862 228.92 461.437 225.14 464.507L225.104 465.263C229.791 467.206 237.732 463.552 242.034 461.803C249.52 458.759 252.603 456.082 257.712 450.068L263.593 449.921C254.612 460.275 241.904 465.962 229.716 471.642C221.628 475.411 217.794 475.9 215.205 484.876C213.621 480.224 211.976 475.593 210.27 470.985C212.236 466.059 212.633 462.218 212.255 457.044C223.435 454.671 228.795 451.01 236.595 443.04C239.182 440.397 252.084 426.095 254.121 426.021C256.114 427.919 257.595 430.811 259.351 433.259C258.253 422.201 253.697 425.947 261.904 416.696Z" fill="#222222"/>
<path d="M261.904 416.696L263.237 416.298C268.849 421.164 272.718 441.161 265.013 442.985L264.448 442.85C263.571 442.005 266.4 435.962 266.493 433.745C266.762 427.38 262.88 422.596 261.904 416.696Z" fill="#7E7E7E"/>
<path d="M205.24 488.832C207.242 486.846 208.171 486.176 210.639 484.925C215.983 502.292 218.346 518.475 220.98 536.348C223.627 554.314 223.105 570.519 221.78 588.525C221.579 591.254 222.789 595.675 222.995 598.451C224.327 605.976 224.862 613.051 224.833 620.721C224.803 628.649 223.029 636.288 222.671 644.15C223.016 652.28 226.888 669.758 222.854 677.801C221.058 678.55 217.381 680.461 215.732 679.961C219.658 665.812 217.351 658.171 216.604 644.04C216.325 638.769 219.475 630.12 219.097 623.87C218.682 617.007 219.162 610.215 217.6 603.286C217.475 600.125 215.48 593.453 215.801 590.709C218.09 571.077 216.546 553.902 213.894 534.375C211.714 518.329 210.337 504.587 205.24 488.832Z" fill="#303030"/>
<path d="M292.304 667.883C296.488 669.02 299.4 669.672 303.665 670.168C307.024 674.208 308.241 675.622 313.258 676.933C316.758 676.454 317.639 676.094 320.915 674.885C321.156 688.513 322.571 696.783 314.926 708.32C315.786 703.003 316.095 699.363 315.707 693.966C314.518 697.276 313.239 700.673 312.246 704.036C309.799 704.348 307.809 705.18 306.327 703.112C306.467 701.355 306.861 699.359 306.087 697.88C304.318 698.914 301.405 709.376 299.653 712.844C297.792 716.05 293.1 723.958 288.885 723.177C286.336 719.742 292.383 708.891 293.043 704.441C293.544 701.069 293.544 700.422 293.541 696.942C293.229 694.072 292.701 691.828 291.273 689.323C288.491 692.096 286.175 699.447 282.03 704.767C281.387 701.589 280.4 695.702 280.945 692.476C281.275 691.971 281.244 691.943 281.668 691.574C286.824 687.078 286.55 682.758 286.531 676.38C289.209 673.539 290.447 671.225 292.304 667.883Z" fill="#FCC7A5"/>
<path d="M292.304 667.883C296.488 669.02 299.4 669.672 303.665 670.168C307.024 674.208 308.241 675.622 313.258 676.933C302.885 679.21 298.312 660.003 288.665 687.748C290.006 688.935 289.886 689.268 291.273 689.323C288.491 692.096 286.175 699.447 282.03 704.767C281.387 701.589 280.4 695.702 280.945 692.476C281.275 691.971 281.244 691.943 281.668 691.574C286.824 687.078 286.55 682.758 286.531 676.38C289.209 673.539 290.447 671.225 292.304 667.883Z" fill="#E49E7C"/>
<path d="M280.945 692.477L282.231 692.588C285.435 690.449 286.203 691.423 288.665 687.749C290.006 688.936 289.886 689.269 291.273 689.324C288.491 692.097 286.175 699.448 282.03 704.768C281.387 701.59 280.4 695.703 280.945 692.477Z" fill="#BA9C86"/>
<path d="M293.541 696.942C296.931 702.105 293.643 711.821 299.653 712.844C297.792 716.05 293.1 723.958 288.885 723.177C286.336 719.742 292.383 708.891 293.043 704.441C293.544 701.069 293.544 700.422 293.541 696.942Z" fill="#BA9C86"/>
<path d="M86.6211 660.839C87.7081 659.367 87.0221 659.709 88.4801 659.312C89.4451 659.831 90.1711 660.565 90.1741 661.704C90.1851 665.218 97.2721 673.914 97.4331 676.016C99.6431 680.548 107.356 681.552 112.064 682.73C143.302 690.554 177.977 692.4 210.011 690.922C210.197 694.183 210.094 697.486 210.048 700.754C169.63 701.527 134.303 698.273 95.7431 685.735C95.4521 682.167 95.3521 678.035 95.1751 674.417C90.5611 669.603 88.3611 667.384 86.6211 660.839Z" fill="#303030"/>
<path d="M249.301 831.53C251.754 831.314 258.62 829.608 260.1 830.195C266.509 833.821 272.743 837.524 279.215 841.079C282.792 843.044 290.762 847.102 293.725 849.304L294.311 849.867C289.744 852.147 257.017 849.862 250.501 849.952C247.135 850.407 236.876 849.513 233.082 849.247C232.995 843.145 233.025 837.042 233.172 830.941C238.542 831.29 243.92 831.486 249.301 831.53Z" fill="#222222"/>
<path d="M233.172 830.94C238.542 831.289 243.92 831.485 249.301 831.529C240.875 833.786 235.227 840.086 244.049 847.284C245.397 848.384 248.666 848.538 250.501 849.951C247.135 850.406 236.876 849.513 233.082 849.247C232.995 843.145 233.025 837.041 233.172 830.94Z" fill="#1A1A1A"/>
<path d="M293.726 849.304C288.388 848.332 264.381 835.043 259.975 830.995L260.101 830.194C266.51 833.82 272.744 837.523 279.216 841.078C282.793 843.043 290.763 847.102 293.726 849.304Z" fill="#7E7E7E"/>
<path d="M128.508 832.665C144.15 831.94 146.077 845.201 149.197 857.435C141.315 858.881 136.203 859.848 128.108 859.922C121.222 859.958 112.521 859.739 105.988 857.405C109.015 851.421 112.515 845.688 116.454 840.261C120.3 835.039 122.316 833.578 128.508 832.665Z" fill="#222222"/>
<path d="M280.031 677.548C280.628 678.636 279.969 683.621 279.826 685.125C260.363 693.083 244.137 695.947 223.501 699.162C222.899 698.337 223.519 691.573 223.597 690.046C238.993 688.572 265.966 683.198 280.031 677.548Z" fill="#303030"/>
<path d="M304.432 651.509C310.664 651.36 318.158 650.731 324.378 649.985C324.525 652.118 324.889 653.796 324.019 655.684C322.074 657.708 318.966 657.335 316.021 657.47C309.396 658.506 301.316 657.616 294.594 657.072L294.498 650.803C297.811 651.013 301.122 651.248 304.432 651.509Z" fill="#303030"/>
<path d="M294.498 650.803C297.811 651.013 301.122 651.248 304.432 651.509C302.777 653.476 301.808 654.935 303.618 656.936C308.397 658.389 311.489 657.101 316.021 657.47C309.396 658.506 301.316 657.616 294.594 657.072L294.498 650.803Z" fill="#222222"/>
<path d="M317.373 662.09C320.19 661.658 320.067 661.193 322.137 662.21C323.604 664.579 322.964 666.316 321.447 668.565C318.707 671.764 316.68 673.294 312.42 673.498C308.852 671.627 304.697 667.86 305.893 663.378C307.144 662.095 306.694 662.499 309.078 662.394C312.545 662.021 313.889 661.92 317.373 662.09Z" fill="#7E7E7E"/>
<path d="M317.373 662.09C320.19 661.658 320.067 661.193 322.137 662.21C323.604 664.579 322.964 666.316 321.447 668.565C313.491 668.975 313.775 671.768 310.617 662.554C313.295 662.522 314.729 662.458 317.373 662.09Z" fill="#FDFDFD"/>
<path d="M312.42 673.499C308.852 671.628 304.697 667.861 305.893 663.379C307.144 662.096 306.694 662.5 309.078 662.395C309.42 668.513 312.377 668.791 312.42 673.499Z" fill="#B1B0B0"/>
<path d="M138.511 618.779C140.372 619.222 141.6 619.292 142.74 620.533C140.877 627.145 128.637 645.016 124.098 651.113C123.028 652.384 123.698 652.017 122.245 652.536L121.83 651.817C122.497 648.703 136.244 623.119 138.511 618.779Z" fill="url(#paint5_linear_2486_2161)"/>
<path d="M328.737 260.882C335.653 268.559 337.276 275.713 329.727 283.538L325.213 286.445C326.719 279.039 327.434 268.814 328.737 260.882Z" fill="#E49E7C"/>
<path d="M199.145 473.003L206.197 472.021C207.943 476.249 209.603 480.467 210.64 484.926C208.172 486.177 207.243 486.847 205.241 488.833C203.026 483.587 201.758 478.734 199.145 473.003Z" fill="#222222"/>
<path d="M108.783 648.697C110.545 645.766 112.237 642.161 113.725 639.075C116.166 640.659 117.691 641.647 120.351 642.945C118.863 646.348 117.227 649.126 115.395 652.349C113.487 651.352 110.456 649.886 108.783 648.697Z" fill="#222222"/>
<path d="M202.625 458.239C204.431 458.02 205.678 457.609 207.183 458.502C209.033 461.648 208.243 466.943 205.163 468.801C203.242 468.826 201.432 469.101 199.773 468.415C199.612 466.035 200.256 460.791 201.105 458.625L202.625 458.239Z" fill="#222222"/>
<path d="M212.549 691.021L220.005 690.764L219.19 699.771C216.987 700.042 214.736 700.262 212.525 700.502L212.549 691.021Z" fill="#303030"/>
<path d="M306.327 703.112C307.809 705.18 309.799 704.348 312.246 704.036C308.975 712.363 306.842 715.626 299.717 720.919C304.309 713.832 304.49 710.959 306.327 703.112Z" fill="#E49E7C"/>
<path d="M215.733 679.961C217.382 680.461 221.059 678.55 222.855 677.801C222.038 681.102 221.122 684.377 220.109 687.624C217.87 687.832 215.044 688.014 212.873 688.374C213.818 685.581 214.753 682.736 215.733 679.961Z" fill="#222222"/>
<path d="M112.588 408.229C114.971 409.47 120.13 415.035 121.124 417.612L120.389 418.005C116.54 416.892 111.4 416.412 110.252 412.271C110.532 410.476 111.441 409.664 112.588 408.229Z" fill="#303030"/>
<path d="M294.174 661.604C296.728 661.956 300.213 662.123 302.859 662.32C302.882 663.989 302.893 665.657 302.89 667.326C300.019 666.704 296.343 666.33 294.117 664.865C293.369 663.223 293.578 663.801 294.174 661.604Z" fill="#B1B0B0"/>
<path d="M254.778 411.544L256.196 413.457L251.127 418.583L253.736 412.674L254.778 411.544Z" fill="#BA9C86"/>
<defs>
<linearGradient id="paint0_linear_2486_2161" x1="219.808" y1="229.969" x2="271.748" y2="275.689" gradientUnits="userSpaceOnUse">
<stop stop-color="#DF9575"/>
<stop offset="1" stop-color="#EFB798"/>
</linearGradient>
<linearGradient id="paint1_linear_2486_2161" x1="91.5121" y1="452.164" x2="76.002" y2="452.196" gradientUnits="userSpaceOnUse">
<stop stop-color="#68686A"/>
<stop offset="1" stop-color="#838282"/>
</linearGradient>
<linearGradient id="paint2_linear_2486_2161" x1="319.933" y1="612.997" x2="331.295" y2="613.424" gradientUnits="userSpaceOnUse">
<stop stop-color="#6A6869"/>
<stop offset="1" stop-color="#818283"/>
</linearGradient>
<linearGradient id="paint3_linear_2486_2161" x1="134.176" y1="470.073" x2="146.676" y2="406.507" gradientUnits="userSpaceOnUse">
<stop stop-color="#1E1D1D"/>
<stop offset="1" stop-color="#3A3A3A"/>
</linearGradient>
<linearGradient id="paint4_linear_2486_2161" x1="127.386" y1="420.925" x2="114.45" y2="430.056" gradientUnits="userSpaceOnUse">
<stop stop-color="#4C4B4C"/>
<stop offset="1" stop-color="#757575"/>
</linearGradient>
<linearGradient id="paint5_linear_2486_2161" x1="121.016" y1="636.577" x2="142.485" y2="635.147" gradientUnits="userSpaceOnUse">
<stop stop-color="#EAB596"/>
<stop offset="1" stop-color="#FAD5B2"/>
</linearGradient>
</defs>
</svg>
